<mxfile host="app.diagrams.net" agent="Mozilla/5.0 (Windows NT 10.0; Win64; x64) AppleWebKit/537.36 (KHTML, like Gecko) Chrome/132.0.0.0 Safari/537.36" version="26.0.10">
  <diagram name="Pagina-1" id="LsAqD4UNsJCKI-mNNdIr">
    <mxGraphModel dx="2048" dy="618" grid="1" gridSize="10" guides="1" tooltips="1" connect="1" arrows="1" fold="1" page="1" pageScale="1" pageWidth="827" pageHeight="1169" math="0" shadow="0">
      <root>
        <mxCell id="0" />
        <mxCell id="1" parent="0" />
        <mxCell id="HkNaHEm3LBlhO49KUOaw-3" value="" style="edgeStyle=orthogonalEdgeStyle;rounded=0;orthogonalLoop=1;jettySize=auto;html=1;" parent="1" source="HkNaHEm3LBlhO49KUOaw-1" target="HkNaHEm3LBlhO49KUOaw-2" edge="1">
          <mxGeometry relative="1" as="geometry" />
        </mxCell>
        <mxCell id="HkNaHEm3LBlhO49KUOaw-1" value="START" style="ellipse;whiteSpace=wrap;html=1;" parent="1" vertex="1">
          <mxGeometry x="250" y="10" width="120" height="80" as="geometry" />
        </mxCell>
        <mxCell id="HkNaHEm3LBlhO49KUOaw-5" value="" style="edgeStyle=orthogonalEdgeStyle;rounded=0;orthogonalLoop=1;jettySize=auto;html=1;" parent="1" source="HkNaHEm3LBlhO49KUOaw-2" target="HkNaHEm3LBlhO49KUOaw-4" edge="1">
          <mxGeometry relative="1" as="geometry" />
        </mxCell>
        <mxCell id="HkNaHEm3LBlhO49KUOaw-2" value="count = 0" style="whiteSpace=wrap;html=1;" parent="1" vertex="1">
          <mxGeometry x="250" y="120" width="120" height="60" as="geometry" />
        </mxCell>
        <mxCell id="HkNaHEm3LBlhO49KUOaw-7" value="" style="edgeStyle=orthogonalEdgeStyle;rounded=0;orthogonalLoop=1;jettySize=auto;html=1;" parent="1" source="HkNaHEm3LBlhO49KUOaw-4" target="HkNaHEm3LBlhO49KUOaw-6" edge="1">
          <mxGeometry relative="1" as="geometry" />
        </mxCell>
        <mxCell id="HkNaHEm3LBlhO49KUOaw-4" value="sum = 0" style="whiteSpace=wrap;html=1;" parent="1" vertex="1">
          <mxGeometry x="250" y="200" width="120" height="60" as="geometry" />
        </mxCell>
        <mxCell id="HkNaHEm3LBlhO49KUOaw-9" value="" style="edgeStyle=orthogonalEdgeStyle;rounded=0;orthogonalLoop=1;jettySize=auto;html=1;" parent="1" source="HkNaHEm3LBlhO49KUOaw-6" target="HkNaHEm3LBlhO49KUOaw-8" edge="1">
          <mxGeometry relative="1" as="geometry" />
        </mxCell>
        <mxCell id="HkNaHEm3LBlhO49KUOaw-6" value="prodotto = 1" style="whiteSpace=wrap;html=1;" parent="1" vertex="1">
          <mxGeometry x="250" y="280" width="120" height="60" as="geometry" />
        </mxCell>
        <mxCell id="HkNaHEm3LBlhO49KUOaw-11" value="" style="edgeStyle=orthogonalEdgeStyle;rounded=0;orthogonalLoop=1;jettySize=auto;html=1;" parent="1" source="HkNaHEm3LBlhO49KUOaw-8" target="HkNaHEm3LBlhO49KUOaw-10" edge="1">
          <mxGeometry relative="1" as="geometry" />
        </mxCell>
        <mxCell id="HkNaHEm3LBlhO49KUOaw-8" value="read n" style="shape=parallelogram;perimeter=parallelogramPerimeter;whiteSpace=wrap;html=1;fixedSize=1;" parent="1" vertex="1">
          <mxGeometry x="250" y="370" width="120" height="60" as="geometry" />
        </mxCell>
        <mxCell id="HkNaHEm3LBlhO49KUOaw-13" value="" style="edgeStyle=orthogonalEdgeStyle;rounded=0;orthogonalLoop=1;jettySize=auto;html=1;" parent="1" source="HkNaHEm3LBlhO49KUOaw-10" target="HkNaHEm3LBlhO49KUOaw-12" edge="1">
          <mxGeometry relative="1" as="geometry" />
        </mxCell>
        <mxCell id="HkNaHEm3LBlhO49KUOaw-14" value="TRUE" style="edgeLabel;html=1;align=center;verticalAlign=middle;resizable=0;points=[];" parent="HkNaHEm3LBlhO49KUOaw-13" vertex="1" connectable="0">
          <mxGeometry x="-0.1714" relative="1" as="geometry">
            <mxPoint as="offset" />
          </mxGeometry>
        </mxCell>
        <mxCell id="HkNaHEm3LBlhO49KUOaw-30" value="" style="edgeStyle=orthogonalEdgeStyle;rounded=0;orthogonalLoop=1;jettySize=auto;html=1;" parent="1" source="HkNaHEm3LBlhO49KUOaw-10" target="HkNaHEm3LBlhO49KUOaw-29" edge="1">
          <mxGeometry relative="1" as="geometry" />
        </mxCell>
        <mxCell id="HkNaHEm3LBlhO49KUOaw-53" value="FALSE" style="edgeLabel;html=1;align=center;verticalAlign=middle;resizable=0;points=[];" parent="HkNaHEm3LBlhO49KUOaw-30" vertex="1" connectable="0">
          <mxGeometry x="-0.0737" y="1" relative="1" as="geometry">
            <mxPoint as="offset" />
          </mxGeometry>
        </mxCell>
        <mxCell id="HkNaHEm3LBlhO49KUOaw-10" value="n &amp;gt; 0" style="rhombus;whiteSpace=wrap;html=1;" parent="1" vertex="1">
          <mxGeometry x="245" y="470" width="130" height="70" as="geometry" />
        </mxCell>
        <mxCell id="HkNaHEm3LBlhO49KUOaw-16" value="" style="edgeStyle=orthogonalEdgeStyle;rounded=0;orthogonalLoop=1;jettySize=auto;html=1;" parent="1" source="HkNaHEm3LBlhO49KUOaw-12" target="HkNaHEm3LBlhO49KUOaw-15" edge="1">
          <mxGeometry relative="1" as="geometry" />
        </mxCell>
        <mxCell id="HkNaHEm3LBlhO49KUOaw-25" value="TRUE" style="edgeLabel;html=1;align=center;verticalAlign=middle;resizable=0;points=[];" parent="HkNaHEm3LBlhO49KUOaw-16" vertex="1" connectable="0">
          <mxGeometry x="-0.0824" relative="1" as="geometry">
            <mxPoint as="offset" />
          </mxGeometry>
        </mxCell>
        <mxCell id="HkNaHEm3LBlhO49KUOaw-48" value="" style="edgeStyle=orthogonalEdgeStyle;rounded=0;orthogonalLoop=1;jettySize=auto;html=1;" parent="1" source="HkNaHEm3LBlhO49KUOaw-12" target="HkNaHEm3LBlhO49KUOaw-47" edge="1">
          <mxGeometry relative="1" as="geometry" />
        </mxCell>
        <mxCell id="HkNaHEm3LBlhO49KUOaw-54" value="FALSE" style="edgeLabel;html=1;align=center;verticalAlign=middle;resizable=0;points=[];" parent="HkNaHEm3LBlhO49KUOaw-48" vertex="1" connectable="0">
          <mxGeometry x="-0.1158" y="1" relative="1" as="geometry">
            <mxPoint as="offset" />
          </mxGeometry>
        </mxCell>
        <mxCell id="HkNaHEm3LBlhO49KUOaw-12" value="count &amp;lt; n" style="rhombus;whiteSpace=wrap;html=1;" parent="1" vertex="1">
          <mxGeometry x="245" y="610" width="130" height="70" as="geometry" />
        </mxCell>
        <mxCell id="HkNaHEm3LBlhO49KUOaw-18" value="" style="edgeStyle=orthogonalEdgeStyle;rounded=0;orthogonalLoop=1;jettySize=auto;html=1;" parent="1" source="HkNaHEm3LBlhO49KUOaw-15" target="HkNaHEm3LBlhO49KUOaw-17" edge="1">
          <mxGeometry relative="1" as="geometry" />
        </mxCell>
        <mxCell id="HkNaHEm3LBlhO49KUOaw-15" value="count +=1" style="whiteSpace=wrap;html=1;" parent="1" vertex="1">
          <mxGeometry x="250" y="765" width="120" height="60" as="geometry" />
        </mxCell>
        <mxCell id="HkNaHEm3LBlhO49KUOaw-37" value="" style="edgeStyle=orthogonalEdgeStyle;rounded=0;orthogonalLoop=1;jettySize=auto;html=1;" parent="1" source="HkNaHEm3LBlhO49KUOaw-17" target="HkNaHEm3LBlhO49KUOaw-36" edge="1">
          <mxGeometry relative="1" as="geometry" />
        </mxCell>
        <mxCell id="HkNaHEm3LBlhO49KUOaw-64" value="TRUE" style="edgeLabel;html=1;align=center;verticalAlign=middle;resizable=0;points=[];" parent="HkNaHEm3LBlhO49KUOaw-37" vertex="1" connectable="0">
          <mxGeometry x="-0.35" y="-1" relative="1" as="geometry">
            <mxPoint as="offset" />
          </mxGeometry>
        </mxCell>
        <mxCell id="HkNaHEm3LBlhO49KUOaw-56" value="" style="edgeStyle=orthogonalEdgeStyle;rounded=0;orthogonalLoop=1;jettySize=auto;html=1;" parent="1" source="HkNaHEm3LBlhO49KUOaw-17" target="HkNaHEm3LBlhO49KUOaw-55" edge="1">
          <mxGeometry relative="1" as="geometry" />
        </mxCell>
        <mxCell id="HkNaHEm3LBlhO49KUOaw-63" value="FALSE" style="edgeLabel;html=1;align=center;verticalAlign=middle;resizable=0;points=[];" parent="HkNaHEm3LBlhO49KUOaw-56" vertex="1" connectable="0">
          <mxGeometry x="-0.15" relative="1" as="geometry">
            <mxPoint as="offset" />
          </mxGeometry>
        </mxCell>
        <mxCell id="HkNaHEm3LBlhO49KUOaw-17" value="&lt;div&gt;n%4==0&lt;/div&gt;" style="rhombus;whiteSpace=wrap;html=1;" parent="1" vertex="1">
          <mxGeometry x="250" y="900" width="120" height="80" as="geometry" />
        </mxCell>
        <mxCell id="HkNaHEm3LBlhO49KUOaw-49" style="edgeStyle=orthogonalEdgeStyle;rounded=0;orthogonalLoop=1;jettySize=auto;html=1;exitX=0;exitY=0.5;exitDx=0;exitDy=0;entryX=0.5;entryY=0;entryDx=0;entryDy=0;" parent="1" source="HkNaHEm3LBlhO49KUOaw-29" target="HkNaHEm3LBlhO49KUOaw-31" edge="1">
          <mxGeometry relative="1" as="geometry" />
        </mxCell>
        <mxCell id="HkNaHEm3LBlhO49KUOaw-29" value="write &quot;errore&quot;" style="shape=parallelogram;perimeter=parallelogramPerimeter;whiteSpace=wrap;html=1;fixedSize=1;" parent="1" vertex="1">
          <mxGeometry x="40" y="475" width="120" height="60" as="geometry" />
        </mxCell>
        <mxCell id="HkNaHEm3LBlhO49KUOaw-52" style="edgeStyle=orthogonalEdgeStyle;rounded=0;orthogonalLoop=1;jettySize=auto;html=1;exitX=0.5;exitY=1;exitDx=0;exitDy=0;entryX=0.5;entryY=0;entryDx=0;entryDy=0;" parent="1" source="HkNaHEm3LBlhO49KUOaw-31" target="HkNaHEm3LBlhO49KUOaw-51" edge="1">
          <mxGeometry relative="1" as="geometry" />
        </mxCell>
        <mxCell id="HkNaHEm3LBlhO49KUOaw-31" value="" style="ellipse;whiteSpace=wrap;html=1;aspect=fixed;" parent="1" vertex="1">
          <mxGeometry x="-130" y="632.5" width="25" height="25" as="geometry" />
        </mxCell>
        <mxCell id="HkNaHEm3LBlhO49KUOaw-58" style="edgeStyle=orthogonalEdgeStyle;rounded=0;orthogonalLoop=1;jettySize=auto;html=1;exitX=1;exitY=0.5;exitDx=0;exitDy=0;entryX=1;entryY=0.5;entryDx=0;entryDy=0;" parent="1" source="HkNaHEm3LBlhO49KUOaw-34" target="HkNaHEm3LBlhO49KUOaw-12" edge="1">
          <mxGeometry relative="1" as="geometry">
            <Array as="points">
              <mxPoint x="590" y="1120" />
              <mxPoint x="590" y="645" />
            </Array>
          </mxGeometry>
        </mxCell>
        <mxCell id="HkNaHEm3LBlhO49KUOaw-34" value="prodotto = prodotto*count" style="whiteSpace=wrap;html=1;" parent="1" vertex="1">
          <mxGeometry x="50" y="1090" width="120" height="60" as="geometry" />
        </mxCell>
        <mxCell id="HkNaHEm3LBlhO49KUOaw-45" style="edgeStyle=orthogonalEdgeStyle;rounded=0;orthogonalLoop=1;jettySize=auto;html=1;exitX=1;exitY=0.5;exitDx=0;exitDy=0;entryX=1;entryY=0.5;entryDx=0;entryDy=0;" parent="1" source="HkNaHEm3LBlhO49KUOaw-36" target="HkNaHEm3LBlhO49KUOaw-12" edge="1">
          <mxGeometry relative="1" as="geometry" />
        </mxCell>
        <mxCell id="HkNaHEm3LBlhO49KUOaw-36" value="sum = sum+count" style="whiteSpace=wrap;html=1;" parent="1" vertex="1">
          <mxGeometry x="450" y="910" width="120" height="60" as="geometry" />
        </mxCell>
        <mxCell id="HkNaHEm3LBlhO49KUOaw-50" style="edgeStyle=orthogonalEdgeStyle;rounded=0;orthogonalLoop=1;jettySize=auto;html=1;exitX=0;exitY=0.5;exitDx=0;exitDy=0;entryX=1;entryY=0.5;entryDx=0;entryDy=0;" parent="1" source="HkNaHEm3LBlhO49KUOaw-47" target="HkNaHEm3LBlhO49KUOaw-31" edge="1">
          <mxGeometry relative="1" as="geometry" />
        </mxCell>
        <mxCell id="HkNaHEm3LBlhO49KUOaw-47" value="write prodotto, sum" style="shape=parallelogram;perimeter=parallelogramPerimeter;whiteSpace=wrap;html=1;fixedSize=1;" parent="1" vertex="1">
          <mxGeometry x="40" y="615" width="120" height="60" as="geometry" />
        </mxCell>
        <mxCell id="HkNaHEm3LBlhO49KUOaw-51" value="END" style="ellipse;whiteSpace=wrap;html=1;" parent="1" vertex="1">
          <mxGeometry x="-177" y="730" width="120" height="80" as="geometry" />
        </mxCell>
        <mxCell id="HkNaHEm3LBlhO49KUOaw-57" style="edgeStyle=orthogonalEdgeStyle;rounded=0;orthogonalLoop=1;jettySize=auto;html=1;exitX=0.5;exitY=1;exitDx=0;exitDy=0;entryX=0.5;entryY=0;entryDx=0;entryDy=0;" parent="1" source="HkNaHEm3LBlhO49KUOaw-55" target="HkNaHEm3LBlhO49KUOaw-34" edge="1">
          <mxGeometry relative="1" as="geometry" />
        </mxCell>
        <mxCell id="HkNaHEm3LBlhO49KUOaw-62" value="TRUE" style="edgeLabel;html=1;align=center;verticalAlign=middle;resizable=0;points=[];" parent="HkNaHEm3LBlhO49KUOaw-57" vertex="1" connectable="0">
          <mxGeometry x="-0.1636" relative="1" as="geometry">
            <mxPoint as="offset" />
          </mxGeometry>
        </mxCell>
        <mxCell id="HkNaHEm3LBlhO49KUOaw-60" style="edgeStyle=orthogonalEdgeStyle;rounded=0;orthogonalLoop=1;jettySize=auto;html=1;exitX=0;exitY=0.5;exitDx=0;exitDy=0;entryX=1;entryY=0.5;entryDx=0;entryDy=0;" parent="1" source="HkNaHEm3LBlhO49KUOaw-55" target="HkNaHEm3LBlhO49KUOaw-12" edge="1">
          <mxGeometry relative="1" as="geometry">
            <Array as="points">
              <mxPoint y="940" />
              <mxPoint y="1160" />
              <mxPoint x="590" y="1160" />
              <mxPoint x="590" y="645" />
            </Array>
          </mxGeometry>
        </mxCell>
        <mxCell id="HkNaHEm3LBlhO49KUOaw-61" value="FALSE" style="edgeLabel;html=1;align=center;verticalAlign=middle;resizable=0;points=[];" parent="HkNaHEm3LBlhO49KUOaw-60" vertex="1" connectable="0">
          <mxGeometry x="-0.961" y="-1" relative="1" as="geometry">
            <mxPoint as="offset" />
          </mxGeometry>
        </mxCell>
        <mxCell id="HkNaHEm3LBlhO49KUOaw-55" value="n%2==1" style="rhombus;whiteSpace=wrap;html=1;" parent="1" vertex="1">
          <mxGeometry x="50" y="900" width="120" height="80" as="geometry" />
        </mxCell>
      </root>
    </mxGraphModel>
  </diagram>
</mxfile>
